<svg width="321" height="321" viewBox="0 0 321 321" fill="none" xmlns="http://www.w3.org/2000/svg">
<path fill-rule="evenodd" clip-rule="evenodd" d="M137 1.949C135.625 2.384 131.575 3.272 128 3.923C85.419 11.667 41.614 44.138 20.078 83.921C11.351 100.041 8.336 108.685 1.998 135.764C-3.04 157.289 3.285 201.923 14.998 227.496C62.324 330.825 202.951 352.688 278.616 268.48C373.027 163.41 299.24 0.504998 157.5 1.084C147.6 1.125 138.375 1.514 137 1.949Z" fill="#FFFDFF"/>
<path fill-rule="evenodd" clip-rule="evenodd" d="M141 1.68101C138.792 2.04101 126.993 4.31101 121.5 5.43201C92.142 11.424 55.403 35.375 34.954 61.854C25.663 73.884 25.585 74.001 20.249 83.709C-37.244 188.308 36.166 316.655 155.24 319.724C310.39 323.723 380.563 131.062 259 34.847C226.845 9.39701 177.934 -4.35099 141 1.68101ZM262.75 57.238C264.776 58.87 263.99 62.291 255.546 88.584C254.639 91.408 254.543 93.218 255.234 94.453C256.743 97.151 254.565 97.967 245.809 97.985C237.723 98.001 235.8 97.032 238.266 94.187C239.644 92.597 243.814 80.654 247.513 67.704C248.841 63.054 248.923 61.612 247.927 60.412C244.606 56.411 258.129 53.515 262.75 57.238ZM128.023 58.043C129.093 60.043 128.096 63.97 120.342 88.286C119.096 92.19 119.051 93.356 120.093 94.612C122.106 97.038 119.547 97.967 110.809 97.985C102.8 98.001 100.808 97.05 103.406 94.451C104.25 93.607 105.89 89.673 107.051 85.709C108.211 81.744 110.292 74.739 111.674 70.143C113.491 64.097 113.884 61.484 113.093 60.693C110.377 57.977 113.76 56.16 121.715 56.063C125.981 56.012 127.129 56.372 128.023 58.043ZM186.036 58.067C186.88 59.644 186.77 61.227 185.571 64.745C184.707 67.281 184 69.478 184 69.627C184 69.776 185.639 69.213 187.642 68.376C199.942 63.237 205.732 79.068 196.23 91.856C191.327 98.455 179.421 100.165 175.895 94.777C175.562 94.267 173.769 94.781 171.895 95.923C162.166 101.854 161.162 98.467 167.025 79.5C172.107 63.06 172.731 60 171 60C169.2 60 169.951 58.329 172.25 57.22C176.425 55.207 184.78 55.72 186.036 58.067ZM92.428 60.963C96.254 62.914 96.294 62.914 98.774 60.963C104.224 56.676 106.779 59.511 104.508 67.326C102.223 75.185 99.705 75.588 93.665 69.063C88.794 63.799 84.369 65.726 81.069 74.546C77.586 83.855 78.553 90 83.5 90C88.026 90 90.091 82.798 85.943 81.482C80.346 79.706 84.388 77.504 93.783 77.212C105.631 76.844 107.508 77.719 103.28 81.641C101.176 83.592 99.653 86.465 98.484 90.687C96.747 96.963 95.695 98.134 92.358 97.504C91.336 97.311 90.215 97.119 89.867 97.077C89.518 97.034 88.973 96.005 88.655 94.789L88.077 92.579L85.601 94.905C77.456 102.557 64.013 95.685 64.004 83.865C63.99 66.531 79.243 54.241 92.428 60.963ZM232.054 69.691C236.233 72.16 237.199 75.817 235.446 82.544C233.772 88.974 233.618 91.354 234.931 90.543C237.072 89.219 236.845 92.069 234.601 94.678C231.566 98.205 224.519 98.684 221.105 95.595C219.121 93.799 218.892 93.787 217.124 95.388C211.659 100.334 202 97.045 202 90.237C202 82.769 207.526 79.297 217.441 80.536C222.852 81.212 222.913 81.19 223.537 78.359C223.884 76.787 224.319 74.992 224.505 74.372C224.867 73.167 223.128 71 221.8 71C221.36 71 221 71.868 221 72.929C221 77.32 214.677 79.589 210.75 76.608C202.657 70.465 222.472 64.031 232.054 69.691ZM158.722 71.522C167.345 80.145 158.533 95.965 144.16 97.667C130.267 99.313 122.763 91.697 127.064 80.315C131.391 68.861 150.698 63.498 158.722 71.522ZM144.144 74.75C142.865 77.166 139 89.882 139 91.675C139 92.606 139.784 93.023 141.155 92.82C143.424 92.483 146.994 84.578 148.411 76.75C149.166 72.583 146.061 71.128 144.144 74.75ZM182.124 76.177C177.72 87.774 177.374 95.424 181.405 92.079C185.346 88.808 187.957 74.878 184.753 74.216C183.645 73.987 182.683 74.704 182.124 76.177ZM215.667 85.667C214.592 86.742 214.901 89.821 216.162 90.6C217.296 91.301 221 87.694 221 85.889C221 84.859 216.656 84.677 215.667 85.667ZM82.298 135.923C86.125 137.378 86.01 139.721 81.362 155.002C76.475 171.068 76.406 171.442 78.5 170.638C80.781 169.763 80.306 172.366 77.75 174.752C74.306 177.967 71.037 178.343 66.554 176.042C64.351 174.911 62.355 174.426 62.034 174.945C57.765 181.853 45.979 175.396 46.022 166.173C46.083 153.079 56.814 144.072 67.15 148.44C69.462 149.417 71.802 142.671 69.933 140.419C68.324 138.481 69.69 137.051 74.157 135.995C78.845 134.887 79.556 134.881 82.298 135.923ZM238.548 137.433C240.343 140.172 239.371 143.196 236.139 144.926C230.743 147.814 225.897 139.998 230.76 136.25C233.358 134.248 236.804 134.771 238.548 137.433ZM47.809 142.288C49.345 150.057 41.704 155.731 39.779 148.25C38.691 144.022 31.582 143.286 30.122 147.25C27.452 154.496 29.137 158.154 33 153.5C35.325 150.699 39.327 151.562 38.541 154.695C36.394 163.249 33.282 166.263 31 162C29.086 158.424 26.356 159.528 25.137 164.371C24.531 166.775 23.755 169.475 23.411 170.371C22.071 173.864 30.193 172.428 34 168.5C39.917 162.395 43.114 164.129 40.493 172.022L38.839 177H21.92C6.325 177 1.657 176.22 6.389 174.404C9.118 173.357 16.506 148.542 15.655 143.277L15.135 140.054L29.317 139.777C44.555 139.479 47.328 139.856 47.809 142.288ZM213.353 144.75C213.224 147.578 213.525 148 215.672 148C219.606 148 218.508 152.401 214.475 152.797C211.611 153.077 211.329 153.516 209.169 161.051C206.698 169.671 206.926 171.284 210.549 170.809C211.846 170.639 212.929 170.838 212.954 171.25C212.979 171.662 213 172.367 213 172.816C213 174.418 205.164 178 201.661 178C192.741 178 190.739 174.427 193.981 164.296C195.178 160.558 196.321 156.966 196.522 156.314C196.724 155.661 196.013 154.015 194.944 152.656C192.098 149.037 192.532 148 196.893 148C199.424 148 200.987 147.477 201.359 146.506C203.478 140.985 213.591 139.505 213.353 144.75ZM99.299 147.923C102.845 149.272 103.172 151.275 100.984 158.255C98.589 165.892 98.464 169 100.551 169C103.424 169 108.483 153.535 106.094 152.058C102.733 149.981 112.117 146.473 117.926 147.635C122.27 148.504 122.628 151.275 119.573 160.378C116.552 169.376 116.195 172.913 118.5 171C120.834 169.063 120.449 172.14 118.034 174.733C114.315 178.725 106.197 178.89 103.782 175.022C102.64 173.194 102.529 173.199 99.708 175.208C89.028 182.813 81.784 175.157 86.063 160.787C87.709 155.262 87.88 153.56 86.906 152.387C85.324 150.481 86.713 149.046 91.157 147.995C95.845 146.887 96.555 146.881 99.299 147.923ZM149.562 148.596C153.22 150.332 154.508 152.841 153.599 156.462C152.408 161.207 144.654 160.454 143.403 155.471C142.712 152.715 142.784 152.762 140.545 153.621C138.512 154.401 136 159.158 136 162.228C136 167.97 142.429 170.981 148.151 167.919C150.897 166.449 151.442 167.314 149.841 170.604C145.341 179.849 128.245 179.617 124.334 170.257C118.584 156.495 135.536 141.941 149.562 148.596ZM183.495 149.912C187.745 152.316 188.645 155.671 186.923 162.694C185.182 169.796 185.165 170.567 186.75 170.25C187.438 170.113 188 170.48 188 171.066C188 176.908 177.973 179.801 172.95 175.408C171.635 174.257 170.772 174.364 167.235 176.113C159.699 179.842 152.141 175.681 153.315 168.448C154.363 161.989 159.296 159.338 168.501 160.288C174.17 160.873 176.797 158.377 175.825 153.329C175.371 150.97 172.772 150.948 172.427 153.3C171.529 159.413 161 159.671 161 153.58C161 147.623 175.319 145.288 183.495 149.912ZM234.777 148.557C237.669 150.582 237.592 151.891 233.951 162.562C232.187 167.734 231.112 172.606 231.401 174.126C231.891 176.704 231.777 176.764 225.069 177.425C215.405 178.377 212.196 177.499 214.842 174.627C217.941 171.264 222.66 154.287 221.163 151.89C218.93 148.314 230.416 145.502 234.777 148.557ZM264.917 147.976C282.071 152.896 271.909 177.89 252.718 177.978C243.553 178.02 237 173.102 237 166.181C237 153.835 251.768 144.205 264.917 147.976ZM293.589 149.498C296.072 151.981 296.1 151.985 298.179 150.048C302.891 145.658 310.812 146.718 313.014 152.033C314.098 154.651 311.738 166.04 309.204 170.42C308.911 170.926 309.406 171.058 310.304 170.714C313.064 169.655 313.382 172.073 310.82 174.635C302.073 183.382 292.616 176.416 296.834 164.332C299.543 156.569 299.535 155.785 296.75 156.18C293.884 156.588 289.755 167.577 290.376 173.147C290.847 177.376 289.376 178 278.934 178C272.642 178 270.936 176.841 273.318 174.187C275.967 171.235 281.174 153.915 279.881 152.357C276.089 147.788 289.155 145.064 293.589 149.498ZM63.144 153.327C59.158 158.13 57.37 170.448 60.75 169.823C62.494 169.501 68.301 154.417 67.322 152.75C66.625 151.562 64.348 151.876 63.144 153.327ZM254.034 158.64C250.813 167.247 250.192 173.302 252.576 172.843C254.415 172.489 259.936 159.001 259.981 154.75C260.027 150.454 256.147 152.992 254.034 158.64ZM167.362 166.5C167.045 167.325 167.069 168.736 167.414 169.636C168.159 171.577 172 168.82 172 166.345C172 164.506 168.077 164.637 167.362 166.5ZM159.25 216.392C161.733 218.277 161.575 219.278 155.962 237.22C152.479 248.352 151.244 253.644 151.962 254.362C154.149 256.549 152.701 257 143.5 257C133.053 257 133.184 257.065 135.929 253.21C139.17 248.659 146.584 222.166 145.226 219.991C142.784 216.079 154.782 213 159.25 216.392ZM219.049 216.838C221.186 218.569 221.248 218.957 220.114 223.46C218.848 228.49 219.238 230.162 221.217 228.183C226.177 223.223 235 229.37 235 237.785C235 252.189 222.886 261.805 211.837 256.172C208.801 254.624 207.972 254.547 206.434 255.672C204.323 257.215 197.401 257.457 196.512 256.019C196.178 255.479 198.202 247.539 201.009 238.375C204.592 226.676 205.798 221.398 205.056 220.656C200.808 216.408 214.053 212.793 219.049 216.838ZM127.404 220.656C130.648 222.203 131.047 222.199 133.484 220.603C139.377 216.741 141.13 219.869 137.861 228.411C134.916 236.107 132.589 236.069 127.955 228.25C124.423 222.29 118.572 226.338 115.646 236.765C111.794 250.493 115.868 255.13 125.044 247.463C131.169 242.346 135.22 245.925 129.832 251.693C119.416 262.845 101.243 257.502 100.192 242.979C99.019 226.766 114.164 214.342 127.404 220.656ZM175.066 228.035C177.59 229.386 177.536 232.744 174.854 241.243C173.674 244.982 173.021 248.354 173.402 248.735C176.057 251.391 181.53 239.243 180.561 232.847C179.951 228.824 182.652 227 189.215 227C196.555 227 197.407 229.939 193.622 242.206C191.179 250.123 191.176 251.254 193.598 250.324C195.704 249.516 195.287 251.558 192.75 254.478C189.514 258.202 183.759 258.937 179.94 256.114C177.202 254.089 176.81 254.047 174.053 255.473C169.42 257.868 163.364 257.455 160.455 254.545C157.431 251.522 157.431 251.344 160.464 241.514C162.046 236.388 162.583 233.183 161.964 232.564C158.331 228.931 169.516 225.065 175.066 228.035ZM216.539 235.176C211.914 248.65 211.486 252 214.39 252C216.398 252 219.795 243.889 220.238 238.039C220.507 234.488 217.559 232.207 216.539 235.176Z" fill="#67A2C0"/>
<path fill-rule="evenodd" clip-rule="evenodd" d="M130 3.62401C126.425 4.40601 122.6 5.22401 121.5 5.44001C104.88 8.71401 67.745 27.202 66.081 33.032C64.106 39.947 65.083 42.877 70.669 46.797C80.015 53.355 97.936 50.304 100.569 41.706C101.798 37.691 108.109 30.978 112.973 28.514C117.831 26.052 125.876 17.844 132.758 8.32601C134.816 5.48001 137.4 2.95401 138.5 2.71201L140.5 2.27201L138.5 2.23701C137.4 2.21701 133.575 2.84101 130 3.62401ZM212.489 9.98201C212.84 10.551 212.18 11 210.993 11C202.189 11 200.997 17.448 206.536 35.114C208.48 41.317 210.351 49.07 210.694 52.343C211.239 57.558 211.827 58.828 215.446 62.605C219.122 66.441 219.352 66.951 217.538 67.234C216.417 67.409 218.425 67.548 222 67.542C233.823 67.523 238.112 72.309 235.446 82.544C233.772 88.974 233.618 91.354 234.931 90.543C235.443 90.226 236.112 90.372 236.417 90.866C237.213 92.154 233.154 97 231.278 97C230.411 97 231.907 98.16 234.601 99.578C242.653 103.814 242.962 104.613 236.817 105.306C233.893 105.636 227.225 107.539 222 109.535C216.775 111.531 210.025 113.386 207 113.656C201.288 114.166 199.762 113.791 184.007 108.001C167.532 101.946 159.732 102.809 161.778 110.46C164.398 120.256 162.527 122.93 153 123.01C138.016 123.135 121.61 132.353 119.879 141.62C119.389 144.243 118.428 146.745 117.744 147.179C116.92 147.703 117.253 147.975 118.731 147.985C120.924 148 122.414 150.833 121.956 154.116C121.282 158.946 123.631 159.289 126.5 154.778C129.572 149.948 136.354 146.802 142.87 147.185C147.995 147.486 148.429 147.312 152.37 143.387C161.853 133.942 183.654 134.552 185.294 144.308C185.589 146.064 186.172 148.369 186.591 149.43C187.32 151.279 187.251 151.289 184.954 149.68C183.634 148.756 182.093 148.018 181.527 148.04C179.064 148.136 186.808 151.413 189.596 151.454C191.299 151.479 193.549 152.167 194.596 152.983C196.435 154.415 196.441 154.396 194.75 152.404C193.787 151.27 193 149.815 193 149.171C193 148.527 193.787 147.999 194.75 147.998C195.95 147.997 196.561 147.123 196.693 145.214C196.918 141.964 200.404 133.453 202.278 131.579C202.991 130.866 206.032 130.07 209.037 129.81C213.275 129.443 215.936 128.402 220.905 125.168C231.231 118.448 239.773 119.858 244.536 129.069C246.518 132.902 246.406 133.685 243.461 136.63L240.921 139.17L238.888 136.585C236.931 134.096 232.694 133.068 231.612 134.819C231.333 135.27 232.392 135.449 233.964 135.219C237.706 134.669 240.767 138.698 239.048 141.91C236.679 146.337 231.149 146.76 229.197 142.663C228.242 140.659 228.179 140.715 228.333 143.411C228.479 145.949 228.051 146.44 225 147.239C223.075 147.744 221.141 148.502 220.703 148.925C220.265 149.348 222.572 148.999 225.829 148.151C235.599 145.605 238.737 148.825 235.481 158.054C234.625 160.479 234.356 162.608 234.865 162.929C235.362 163.243 235.993 164.4 236.268 165.5C236.693 167.2 236.785 167.135 236.884 165.066C237.721 147.499 270.443 139.853 273.565 156.495C276.492 172.098 253.14 184.569 240.442 174.183C239.31 173.258 239.778 173.85 241.482 175.5C243.186 177.15 246.659 181.448 249.199 185.051C261.204 202.08 266.946 203.405 277.71 191.627C288.238 180.107 288.499 178 279.392 178C272.673 178 270.9 176.889 273.308 174.187C274.134 173.259 275.979 169.003 277.406 164.729C279.92 157.198 280.753 153.42 279 157.5C278.233 159.286 278.133 159.212 278.07 156.809C278.032 155.329 278.45 153.84 279 153.5C279.55 153.16 280 153.434 280 154.108C280 154.782 280.289 155.044 280.643 154.691C280.996 154.337 280.697 153.34 279.978 152.474C276.257 147.99 289.122 145.032 293.464 149.373C296.072 151.982 296.099 151.985 298.179 150.048C302.891 145.658 310.812 146.718 313.014 152.033C314.098 154.651 311.738 166.04 309.204 170.42C308.911 170.926 309.406 171.058 310.304 170.714C313.037 169.665 313.35 171.99 310.855 174.794C309.56 176.249 309.298 176.826 310.274 176.077C311.25 175.328 312.169 174.892 312.316 175.107C315.357 179.571 317.87 184.037 318.199 185.563C318.428 186.629 319.203 181.598 319.92 174.384C326.301 110.191 290.445 46.711 231.013 16.977C222.731 12.834 211.67 8.65701 212.489 9.98201ZM34.596 62.25C31.562 66.237 28.231 70.625 27.195 72C16.908 85.649 6.064 113.493 2.567 135.239C0.245002 149.674 0.170002 149.49 6.185 144.125C20.25 131.581 23.674 126.533 25.481 115.682C25.97 112.74 26.892 111.406 29.5 109.868C31.907 108.447 33.36 106.518 34.535 103.185C35.443 100.608 37.903 94.77 40.002 90.212C43.188 83.291 43.677 81.394 42.962 78.712C41.755 74.179 39.961 56.872 40.593 55.85C40.882 55.382 40.892 55 40.616 55C40.34 55 37.631 58.263 34.596 62.25ZM119.264 55.718C120.784 55.947 123.034 55.941 124.264 55.704C125.494 55.467 124.25 55.279 121.5 55.286C118.75 55.294 117.744 55.488 119.264 55.718ZM177.264 55.718C178.784 55.947 181.034 55.941 182.264 55.704C183.494 55.467 182.25 55.279 179.5 55.286C176.75 55.294 175.744 55.488 177.264 55.718ZM262.75 57.238C264.776 58.87 263.99 62.291 255.546 88.584C254.639 91.408 254.543 93.218 255.234 94.453C256.743 97.151 254.565 97.967 245.809 97.985C237.723 98.001 235.8 97.032 238.266 94.187C239.644 92.597 243.814 80.654 247.513 67.704C248.841 63.054 248.923 61.612 247.927 60.412C244.606 56.411 258.129 53.515 262.75 57.238ZM88.563 57.898C88.258 58.391 89.863 59.713 92.13 60.834L96.252 62.874L99.218 60.687L102.184 58.5L99.342 57.868C94.933 56.888 89.177 56.904 88.563 57.898ZM104.888 60.365C105.851 61.525 105.771 62.979 104.508 67.326C102.223 75.185 99.705 75.588 93.665 69.063C88.794 63.799 84.369 65.726 81.069 74.546C77.586 83.855 78.553 90 83.5 90C88.026 90 90.091 82.798 85.943 81.482C78.226 79.033 94.973 75.273 103.772 77.48C105.714 77.966 105.885 78.347 104.946 80.1C103.945 81.972 104.03 82.054 105.924 81.041C107.066 80.43 108.029 80.283 108.065 80.715C108.1 81.147 109.478 77.08 111.126 71.677C114.536 60.503 114.282 59.526 107.878 59.148C104.282 58.936 103.848 59.112 104.888 60.365ZM73.75 61.758C72.237 62.696 71 63.879 71 64.387C71 64.894 71.787 64.628 72.75 63.795C73.713 62.962 75.4 61.781 76.5 61.17C77.6 60.56 78.05 60.059 77.5 60.057C76.95 60.055 75.263 60.82 73.75 61.758ZM68.5 67C68.16 67.55 66.58 68 64.988 68C61.079 68 57.02 69.965 56.911 71.911C56.682 76.008 57.248 83.965 58.086 88.414C58.734 91.861 58.651 94.322 57.808 96.653C54.941 104.583 59.18 107.614 67.468 103.56C74.072 100.329 74.942 98.539 70.921 96.459C62.912 92.317 61.665 75.757 68.759 67.75C69.612 66.787 70.042 66 69.714 66C69.386 66 68.84 66.45 68.5 67ZM144.768 67.725C146.565 67.947 149.265 67.943 150.768 67.715C152.271 67.486 150.8 67.304 147.5 67.31C144.2 67.315 142.971 67.502 144.768 67.725ZM195.5 68.161C196.6 68.766 198.318 70.214 199.317 71.38L201.134 73.5L200.044 71.273C199.004 69.148 196.057 66.966 194.316 67.03C193.867 67.047 194.4 67.556 195.5 68.161ZM159.086 71.618C160.414 73.333 161.701 74.557 161.947 74.338C162.193 74.119 161.106 72.716 159.533 71.22L156.672 68.5L159.086 71.618ZM130.437 74.25L127.5 77.5L130.75 74.563C132.537 72.948 134 71.485 134 71.313C134 70.54 133.175 71.221 130.437 74.25ZM182.493 75.011C182.112 75.628 182.07 76.403 182.4 76.733C182.73 77.063 183 76.808 183 76.167C183 74.037 185.852 74.961 186.344 77.25C186.773 79.245 186.809 79.218 186.664 77.01C186.491 74.388 183.704 73.052 182.493 75.011ZM162.232 79C162.232 80.925 162.438 81.713 162.689 80.75C162.941 79.787 162.941 78.213 162.689 77.25C162.438 76.287 162.232 77.075 162.232 79ZM215.667 85.667C214.592 86.742 214.901 89.821 216.162 90.6C217.392 91.36 221.029 87.6 220.96 85.639C220.938 85.013 220.249 85.737 219.428 87.25C217.556 90.7 215.604 90.853 216.245 87.5C216.757 84.82 216.699 84.635 215.667 85.667ZM156.156 91.711C151.873 96.171 152.278 96.696 156.842 92.601C158.811 90.835 161.707 86.79 160.785 87.094C160.628 87.146 158.545 89.224 156.156 91.711ZM195.566 92.75C193.405 95.512 193.232 95.976 194.909 94.511C196.914 92.76 199.558 89 198.785 89C198.628 89 197.18 90.688 195.566 92.75ZM178.015 90.691C177.988 92.852 180.163 93.268 181.846 91.423C183.402 89.716 183.392 89.691 181.674 90.99C180.115 92.169 179.715 92.161 178.939 90.936C178.369 90.035 178.025 89.943 178.015 90.691ZM85.384 95.274L83.5 97.5L85.646 95.689C87.303 94.291 87.912 94.177 88.317 95.189C88.669 96.069 88.868 96.108 88.921 95.309C89.07 93.065 87.267 93.047 85.384 95.274ZM96.981 98.836L91.582 103.673L94.245 106.336C98.955 111.046 103.587 109.625 106.536 102.567C108.433 98.029 108.426 98 105.559 98C102.65 98 101.181 96.133 103.122 94.904C103.88 94.423 104.023 94.024 103.44 94.015C102.858 94.007 99.951 96.176 96.981 98.836ZM203.861 95.941C205.159 97.073 206.697 98 207.277 98C208.507 98 208.448 97.95 204.5 95.638L201.5 93.881L203.861 95.941ZM216.872 95.75C215.629 97.336 215.664 97.371 217.25 96.128C218.733 94.964 219.267 94.964 220.75 96.128C222.336 97.371 222.371 97.336 221.128 95.75C220.373 94.787 219.415 94 219 94C218.585 94 217.627 94.787 216.872 95.75ZM21.75 139.743C25.738 139.932 32.262 139.932 36.25 139.743C40.237 139.553 36.975 139.397 29 139.397C21.025 139.397 17.762 139.553 21.75 139.743ZM45.75 140.031C47.094 140.571 48.047 141.854 48.116 143.218C48.206 144.986 48.337 145.095 48.699 143.702C49.271 141.498 47.331 138.978 45.128 139.063C44.026 139.106 44.227 139.419 45.75 140.031ZM151.845 150.066C153.528 151.637 154.073 153.05 153.776 155.074C153.548 156.625 153.73 157.667 154.181 157.388C156.387 156.025 154.314 149.716 151.278 148.556C149.978 148.059 150.131 148.465 151.845 150.066ZM62.872 153.75C61.631 155.333 61.666 155.37 63.237 154.138C64.193 153.389 65.679 153.046 66.539 153.377C67.439 153.722 67.844 153.557 67.493 152.989C66.549 151.461 64.389 151.816 62.872 153.75ZM140.239 153.666C139.545 153.946 138.477 155.148 137.865 156.337C136.83 158.351 136.91 158.336 139.033 156.124L141.312 153.748L142.688 156.374C143.445 157.818 144.286 159 144.558 159C144.829 159 144.353 157.65 143.5 156C142.647 154.35 141.848 153.036 141.724 153.079C141.601 153.122 140.932 153.387 140.239 153.666ZM254.034 158.64C250.813 167.247 250.192 173.302 252.576 172.843C254.415 172.489 259.936 159.001 259.981 154.75C260.027 150.454 256.147 152.992 254.034 158.64ZM161.713 157.144C162.742 158.392 162.059 158.799 157.213 159.827C151.377 161.065 142.046 165.308 140.829 167.277C140.359 168.037 139.595 167.933 138.326 166.936C136.636 165.607 136.607 165.637 137.943 167.335C139.441 169.24 145.244 169.333 149.365 167.519C150.978 166.809 151.136 167.022 150.529 169.099C149.544 172.471 145.284 175.812 140 177.357C130.663 180.087 127.342 202.48 135.13 210.2C139.892 214.921 144.617 217.983 145.61 216.99C150.24 212.36 161.469 215.467 160.704 221.167C160.241 224.619 160.415 224.932 163.112 225.524C164.71 225.876 165.788 226.533 165.509 226.986C165.229 227.439 166.735 227.577 168.856 227.293C177.134 226.182 178.56 229.499 174.854 241.243C173.674 244.982 173.021 248.354 173.402 248.735C176.057 251.391 181.53 239.243 180.561 232.847C179.951 228.824 182.652 227 189.215 227C196.555 227 197.407 229.939 193.622 242.206C191.179 250.123 191.176 251.254 193.598 250.324C195.704 249.516 195.287 251.558 192.75 254.478C189.512 258.204 183.759 258.937 179.935 256.11C177.222 254.105 176.786 254.052 174.248 255.429C172.737 256.249 172.004 256.938 172.621 256.96C173.241 256.982 174.045 259.68 174.42 262.993C174.793 266.289 176.021 271.576 177.15 274.743C178.279 277.909 180.085 283.2 181.163 286.5C185.529 299.862 190.094 304 200.469 304C209.659 304 217.172 292.142 224.595 265.918C226.062 260.738 227.99 255.636 228.881 254.58C230.171 253.051 229.861 253.124 227.354 254.941C223.007 258.093 216.475 258.64 211.875 256.237C208.801 254.631 207.975 254.545 206.434 255.672C204.323 257.215 197.401 257.457 196.512 256.019C196.178 255.479 198.202 247.539 201.009 238.375C204.592 226.676 205.798 221.398 205.056 220.656C200.813 216.413 214.06 212.798 219.049 216.838C221.186 218.569 221.248 218.957 220.114 223.46C218.848 228.49 219.238 230.162 221.217 228.183C224.242 225.158 233.851 228.229 234.063 232.289C234.194 234.788 238.909 214.93 239.568 209.103C240.182 203.674 240.03 202.84 238.143 201.264C236.982 200.294 233.341 194.775 230.052 189L224.074 178.5L227.787 178.183C232.378 177.791 233.548 176.74 232.056 174.346C230.993 172.642 230.949 172.663 231.478 174.618C232.01 176.584 231.554 176.786 225.144 177.417C215.422 178.375 212.201 177.505 214.814 174.627C218.062 171.051 217.917 169.7 214.074 167.691C212.108 166.664 209.995 165.181 209.378 164.396C208.468 163.238 208.139 163.557 207.633 166.087C206.859 169.956 207.569 171.2 210.346 170.836C212.403 170.566 213 171.011 213 172.816C213 174.418 205.164 178 201.661 178C193.353 178 190.7 174.263 193.395 166.355C195.26 160.879 195.433 161.284 191.045 160.845C187.734 160.514 187.538 160.682 186.32 164.885C185.042 169.295 185.342 171.525 187.069 170.457C187.581 170.141 188 170.388 188 171.007C188 176.904 178.003 179.828 172.95 175.408C171.635 174.257 170.772 174.364 167.235 176.113C159.699 179.842 152.141 175.681 153.315 168.448C154.363 161.986 159.296 159.338 168.513 160.289C172.311 160.681 173.987 160.476 174.332 159.576C174.675 158.684 174.035 158.461 172.159 158.817C169.679 159.288 169.598 159.194 170.952 157.411C172.091 155.911 172.102 155.769 171.002 156.75C169.244 158.318 165.537 158.356 162.684 156.836C160.805 155.835 160.67 155.878 161.713 157.144ZM136.232 162C136.232 163.925 136.438 164.713 136.689 163.75C136.941 162.787 136.941 161.213 136.689 160.25C136.438 159.287 136.232 160.075 136.232 162ZM30.037 161.806C31.853 165.636 37.074 165.501 36.97 161.628C36.953 161.007 36.481 161.287 35.92 162.25C34.533 164.632 32.573 164.448 30.593 161.75L28.942 159.5L30.037 161.806ZM33.289 168.025C30.973 170.211 29.422 172 29.843 172C30.263 172 32.158 170.396 34.054 168.436C36.486 165.92 38.153 164.995 39.72 165.291C40.941 165.522 41.702 165.326 41.411 164.856C40.294 163.049 37.339 164.202 33.289 168.025ZM167.362 166.5C167.045 167.325 167.069 168.736 167.414 169.636C168.159 171.577 172 168.82 172 166.345C172 164.506 168.077 164.637 167.362 166.5ZM83.232 170C83.232 171.925 83.438 172.713 83.689 171.75C83.941 170.787 83.941 169.213 83.689 168.25C83.438 167.287 83.232 168.075 83.232 170ZM294 171.441C294 172.784 294.369 174.11 294.819 174.388C295.27 174.667 295.443 173.568 295.206 171.947C294.681 168.373 294 168.087 294 171.441ZM1.252 176.5C1.263 178.7 1.468 179.482 1.707 178.238C1.946 176.994 1.937 175.194 1.687 174.238C1.437 173.282 1.241 174.3 1.252 176.5ZM13.797 177.745C18.361 177.93 25.561 177.929 29.797 177.742C34.034 177.555 30.3 177.404 21.5 177.405C12.7 177.406 9.234 177.559 13.797 177.745ZM11.866 192.653C3.26 195.488 3.698 194.183 7.213 206.5C18.488 246.016 47.194 281.177 85 301.78C94.991 307.225 102.638 310.191 102.76 308.67C102.812 308.026 103.744 301.973 104.831 295.218C107.036 281.519 106.69 278.298 101.552 264.705C95.983 249.973 90.012 240.092 85.162 237.584C83.658 236.806 80.194 232.96 77.464 229.037C65.031 211.173 62.19 208.137 49 198.614C36.565 189.636 26.115 187.959 11.866 192.653ZM117.75 218.706C118.987 218.944 121.013 218.944 122.25 218.706C123.487 218.467 122.475 218.272 120 218.272C117.525 218.272 116.513 218.467 117.75 218.706ZM160.038 230C160.052 230.825 160.724 232.374 161.532 233.441C163.42 235.937 163.408 235.011 161.506 231.364C160.685 229.789 160.024 229.175 160.038 230ZM130.475 233.96C130.829 234.532 132.291 235 133.726 235C136.86 235 136.498 234.521 132.666 233.601C130.808 233.154 130.054 233.278 130.475 233.96ZM216.539 235.176C211.914 248.65 211.486 252 214.39 252C216.398 252 219.795 243.889 220.238 238.039C220.507 234.488 217.559 232.207 216.539 235.176ZM235.232 238C235.232 239.925 235.438 240.713 235.689 239.75C235.941 238.787 235.941 237.213 235.689 236.25C235.438 235.287 235.232 236.075 235.232 238ZM99.252 242.5C99.263 244.7 99.468 245.482 99.707 244.238C99.946 242.994 99.937 241.194 99.687 240.238C99.437 239.282 99.241 240.3 99.252 242.5ZM114.15 244.55C113.977 249.232 115.354 251.049 118.95 250.882C121.315 250.772 121.282 250.717 118.5 250.127C115.833 249.56 115.433 248.991 114.9 244.995L114.3 240.5L114.15 244.55ZM158 252.881C158 253.856 161.888 257.494 162.307 256.911C162.469 256.685 161.566 255.504 160.301 254.286C159.035 253.068 158 252.436 158 252.881ZM139.28 257.736C141.909 257.943 145.959 257.94 148.28 257.731C150.601 257.521 148.45 257.352 143.5 257.355C138.55 257.358 136.651 257.53 139.28 257.736ZM165.762 257.707C167.006 257.946 168.806 257.937 169.762 257.687C170.718 257.437 169.7 257.241 167.5 257.252C165.3 257.263 164.518 257.468 165.762 257.707ZM272.971 273.75L266.5 280.5L273.25 274.029C276.962 270.47 280 267.432 280 267.279C280 266.543 278.982 267.48 272.971 273.75Z" fill="#A7CA90"/>
</svg>
