<svg width="378" height="311" viewBox="0 0 378 311" fill="none" xmlns="http://www.w3.org/2000/svg">
<path d="M327.058 153.408L320.467 171.632M327.058 153.408L346.969 174.704C348.342 175.25 349.715 174.34 350.127 172.702L374.981 117.186C375.393 115.366 374.707 113.546 373.471 113L290.12 142.487C289.708 144.307 290.394 146.127 291.63 146.673L320.467 150.132M327.058 153.408L374.26 115.048L320.467 150.132M320.467 171.632L331.989 158.681M320.467 171.632V150.132" stroke="#EAE197" stroke-width="4" stroke-linejoin="round"/>
<path d="M325.811 162.176C244.974 303.318 144.657 76.8866 93.4379 46.5182C42.2191 16.1497 122.225 363.506 46.5485 289.117C21.5288 264.523 -2.87183 221.651 -2.87183 221.651" stroke="black" stroke-dasharray="4 4"/>
</svg>
