<?xml version="1.0" standalone="no"?>
<!DOCTYPE svg PUBLIC "-//W3C//DTD SVG 20010904//EN"
 "http://www.w3.org/TR/2001/REC-SVG-20010904/DTD/svg10.dtd">
<svg version="1.0" xmlns="http://www.w3.org/2000/svg"
 width="700.000000pt" height="700.000000pt" viewBox="0 0 700.000000 700.000000"
 preserveAspectRatio="xMidYMid meet">
<metadata>
Created by potrace 1.14, written by Peter Selinger 2001-2017
</metadata>
<g transform="translate(0.000000,700.000000) scale(0.100000,-0.100000)"
fill="#000000" stroke="none">
<path d="M3397 6994 c-1 -1 -49 -4 -107 -8 -58 -3 -116 -8 -130 -10 -14 -2
-54 -7 -90 -10 -70 -6 -343 -61 -505 -102 -364 -92 -815 -320 -1151 -581 -331
-258 -536 -466 -771 -783 -217 -294 -390 -656 -504 -1060 -28 -99 -101 -413
-113 -490 -30 -179 -25 -653 9 -892 12 -84 36 -223 45 -258 5 -19 12 -51 15
-70 9 -53 71 -274 104 -371 63 -183 98 -264 187 -441 337 -669 877 -1201 1579
-1556 119 -60 177 -82 435 -168 183 -61 510 -133 675 -149 39 -4 79 -9 89 -11
114 -21 530 -21 721 1 122 13 267 35 325 49 14 3 37 8 52 10 52 9 233 58 343
93 929 299 1703 1014 2110 1948 116 265 221 637 250 885 4 30 9 66 11 80 25
164 25 561 -2 815 -7 74 -43 282 -59 345 -8 30 -16 68 -19 83 -3 16 -12 50
-20 75 -8 26 -24 81 -37 122 -99 335 -310 743 -538 1040 -364 475 -781 815
-1317 1074 -210 102 -568 213 -884 276 -110 21 -119 23 -240 39 -117 15 -452
34 -463 25z"/>
</g>
</svg>
